<svg width="193" height="11" viewBox="0 0 193 11" xmlns="http://www.w3.org/2000/svg" xmlns:sketch="http://www.bohemiancoding.com/sketch/ns"><title>lgo_tum_type</title><desc>Created with Sketch.</desc><path d="M3.12 10h1.235v-8.242h3.094v-1.04h-7.423v1.04h3.094v8.242zm8.558-2.132c-.195.871-.832 1.313-1.742 1.313-1.469 0-2.132-1.04-2.093-2.21h5.031c.065-1.625-.663-3.848-3.042-3.848-1.833 0-3.159 1.482-3.159 3.497.065 2.054 1.079 3.536 3.224 3.536 1.508 0 2.574-.806 2.873-2.288h-1.092zm-3.835-1.872c.078-1.027.767-1.898 1.924-1.898 1.092 0 1.885.845 1.937 1.898h-3.861zm12.068-.559c-.156-1.599-1.378-2.314-2.899-2.314-2.132 0-3.172 1.586-3.172 3.601 0 2.002 1.092 3.432 3.146 3.432 1.69 0 2.717-.975 2.964-2.613h-1.131c-.143 1.014-.78 1.638-1.846 1.638-1.404 0-1.963-1.222-1.963-2.457 0-1.365.494-2.626 2.093-2.626.91 0 1.495.494 1.664 1.339h1.144zm1.46 4.563h1.105v-3.796c0-1.209.65-2.106 1.989-2.106.845 0 1.365.533 1.365 1.352v4.55h1.105v-4.42c0-1.443-.546-2.457-2.314-2.457-.806 0-1.755.338-2.119 1.144h-.026v-3.549h-1.105v9.282zm7.414 0h1.105v-3.796c0-1.209.65-2.106 1.989-2.106.845 0 1.365.533 1.365 1.352v4.55h1.105v-4.42c0-1.443-.546-2.457-2.314-2.457-.962 0-1.716.39-2.184 1.222h-.026v-1.066h-1.04v6.721zm7.479 0h1.105v-6.721h-1.105v6.721zm1.105-9.282h-1.105v1.352h1.105v-1.352zm1.473 7.163c.065 1.664 1.339 2.275 2.847 2.275 1.365 0 2.86-.52 2.86-2.119 0-1.3-1.092-1.664-2.197-1.911-1.027-.247-2.197-.377-2.197-1.17 0-.676.767-.858 1.43-.858.728 0 1.482.273 1.56 1.131h1.105c-.091-1.638-1.274-2.106-2.756-2.106-1.17 0-2.509.559-2.509 1.911 0 1.287 1.105 1.651 2.197 1.898 1.105.247 2.197.39 2.197 1.248 0 .845-.936 1.001-1.625 1.001-.91 0-1.768-.312-1.807-1.3h-1.105zm12.822-2.444c-.156-1.599-1.378-2.314-2.899-2.314-2.132 0-3.172 1.586-3.172 3.601 0 2.002 1.092 3.432 3.146 3.432 1.69 0 2.717-.975 2.964-2.613h-1.131c-.143 1.014-.78 1.638-1.846 1.638-1.404 0-1.963-1.222-1.963-2.457 0-1.365.494-2.626 2.093-2.626.91 0 1.495.494 1.664 1.339h1.144zm1.46 4.563h1.105v-3.796c0-1.209.65-2.106 1.989-2.106.845 0 1.365.533 1.365 1.352v4.55h1.105v-4.42c0-1.443-.546-2.457-2.314-2.457-.806 0-1.755.338-2.119 1.144h-.026v-3.549h-1.105v9.282zm12.055-2.132c-.195.871-.832 1.313-1.742 1.313-1.469 0-2.132-1.04-2.093-2.21h5.031c.065-1.625-.663-3.848-3.042-3.848-1.833 0-3.159 1.482-3.159 3.497.065 2.054 1.079 3.536 3.224 3.536 1.508 0 2.574-.806 2.873-2.288h-1.092zm-3.835-1.872c.078-1.027.767-1.898 1.924-1.898 1.092 0 1.885.845 1.937 1.898h-3.861zm17.752-5.278h-1.235v5.928c0 1.638-.858 2.535-2.418 2.535-1.638 0-2.574-.897-2.574-2.535v-5.928h-1.235v5.928c0 2.47 1.417 3.575 3.809 3.575 2.314 0 3.653-1.235 3.653-3.575v-5.928zm1.98 9.282h1.105v-3.796c0-1.209.65-2.106 1.989-2.106.845 0 1.365.533 1.365 1.352v4.55h1.105v-4.42c0-1.443-.546-2.457-2.314-2.457-.962 0-1.716.39-2.184 1.222h-.026v-1.066h-1.04v6.721zm7.479 0h1.105v-6.721h-1.105v6.721zm1.105-9.282h-1.105v1.352h1.105v-1.352zm7.388 2.561h-1.157l-1.833 5.603h-.026l-1.885-5.603h-1.235l2.496 6.721h1.183l2.457-6.721zm5.841 4.589c-.195.871-.832 1.313-1.742 1.313-1.469 0-2.132-1.04-2.093-2.21h5.031c.065-1.625-.663-3.848-3.042-3.848-1.833 0-3.159 1.482-3.159 3.497.065 2.054 1.079 3.536 3.224 3.536 1.508 0 2.574-.806 2.873-2.288h-1.092zm-3.835-1.872c.078-1.027.767-1.898 1.924-1.898 1.092 0 1.885.845 1.937 1.898h-3.861zm6.322 4.004h1.105v-2.99c0-1.703.65-2.717 2.431-2.717v-1.17c-1.196-.039-1.937.494-2.47 1.573h-.026v-1.417h-1.04v6.721zm4.125-2.119c.065 1.664 1.339 2.275 2.847 2.275 1.365 0 2.86-.52 2.86-2.119 0-1.3-1.092-1.664-2.197-1.911-1.027-.247-2.197-.377-2.197-1.17 0-.676.767-.858 1.43-.858.728 0 1.482.273 1.56 1.131h1.105c-.091-1.638-1.274-2.106-2.756-2.106-1.17 0-2.509.559-2.509 1.911 0 1.287 1.105 1.651 2.197 1.898 1.105.247 2.197.39 2.197 1.248 0 .845-.936 1.001-1.625 1.001-.91 0-1.768-.312-1.807-1.3h-1.105zm7.18 2.119h1.105v-6.721h-1.105v6.721zm1.105-9.282h-1.105v1.352h1.105v-1.352zm3.436.546h-1.105v2.015h-1.144v.975h1.144v4.277c0 1.235.455 1.469 1.599 1.469h.845v-.975h-.507c-.689 0-.832-.091-.832-.598v-4.173h1.339v-.975h-1.339v-2.015zm6.907 6.396c0 .611-.598 1.521-2.054 1.521-.676 0-1.3-.26-1.3-.988 0-.819.624-1.079 1.352-1.209.741-.13 1.573-.143 2.002-.455v1.131zm1.794 1.456c-.143.052-.247.065-.338.065-.351 0-.351-.234-.351-.754v-3.458c0-1.573-1.313-1.846-2.522-1.846-1.495 0-2.782.585-2.847 2.249h1.105c.052-.988.741-1.274 1.677-1.274.702 0 1.495.156 1.495 1.118 0 .832-1.04.754-2.262.988-1.144.221-2.275.546-2.275 2.067 0 1.339 1.001 1.885 2.223 1.885.936 0 1.755-.325 2.366-1.04 0 .728.364 1.04.936 1.04.351 0 .598-.065.793-.182v-.858zm-2.652-6.812h1.17v-1.352h-1.17v1.352zm-2.444 0h1.17v-1.352h-1.17v1.352zm7.843-1.04h-1.105v2.015h-1.144v.975h1.144v4.277c0 1.235.455 1.469 1.599 1.469h.845v-.975h-.507c-.689 0-.832-.091-.832-.598v-4.173h1.339v-.975h-1.339v-2.015zm6.754 8.736h1.17v-7.722h.026l2.899 7.722h1.053l2.899-7.722h.026v7.722h1.17v-9.282h-1.69l-2.938 7.8-2.925-7.8h-1.69v9.282zm16.865-6.721h-1.105v3.796c0 1.209-.65 2.106-1.989 2.106-.845 0-1.365-.533-1.365-1.352v-4.55h-1.105v4.42c0 1.443.546 2.457 2.314 2.457.962 0 1.716-.39 2.184-1.222h.026v1.066h1.04v-6.721zm-2.145-.975h1.17v-1.352h-1.17v1.352zm-2.444 0h1.17v-1.352h-1.17v1.352zm6.439 7.696h1.105v-3.796c0-1.209.65-2.106 1.989-2.106.845 0 1.365.533 1.365 1.352v4.55h1.105v-4.42c0-1.443-.546-2.457-2.314-2.457-.962 0-1.716.39-2.184 1.222h-.026v-1.066h-1.04v6.721zm13.121-4.563c-.156-1.599-1.378-2.314-2.899-2.314-2.132 0-3.172 1.586-3.172 3.601 0 2.002 1.092 3.432 3.146 3.432 1.69 0 2.717-.975 2.964-2.613h-1.131c-.143 1.014-.78 1.638-1.846 1.638-1.404 0-1.963-1.222-1.963-2.457 0-1.365.494-2.626 2.093-2.626.91 0 1.495.494 1.664 1.339h1.144zm1.46 4.563h1.105v-3.796c0-1.209.65-2.106 1.989-2.106.845 0 1.365.533 1.365 1.352v4.55h1.105v-4.42c0-1.443-.546-2.457-2.314-2.457-.806 0-1.755.338-2.119 1.144h-.026v-3.549h-1.105v9.282zm12.055-2.132c-.195.871-.832 1.313-1.742 1.313-1.469 0-2.132-1.04-2.093-2.21h5.031c.065-1.625-.663-3.848-3.042-3.848-1.833 0-3.159 1.482-3.159 3.497.065 2.054 1.079 3.536 3.224 3.536 1.508 0 2.574-.806 2.873-2.288h-1.092zm-3.835-1.872c.078-1.027.767-1.898 1.924-1.898 1.092 0 1.885.845 1.937 1.898h-3.861zm6.361 4.004h1.105v-3.796c0-1.209.65-2.106 1.989-2.106.845 0 1.365.533 1.365 1.352v4.55h1.105v-4.42c0-1.443-.546-2.457-2.314-2.457-.962 0-1.716.39-2.184 1.222h-.026v-1.066h-1.04v6.721z" sketch:type="MSShapeGroup" fill="#3070B3"/></svg>